<?xml version="1.0" encoding="UTF-8"?><svg xmlns="http://www.w3.org/2000/svg" xmlns:xlink="http://www.w3.org/1999/xlink" height="267.5" preserveAspectRatio="xMidYMid meet" version="1.0" viewBox="112.6 76.1 195.2 267.5" width="195.2" zoomAndPan="magnify"><g><g><g><g><g id="change1_2"><path d="M238.361,141.546c-14.369-0.001-26.027,10.21-26.027,22.802c0-12.592-11.641-22.803-26.021-22.803 c-12.043,0-24.717,10.072-25.446,22.086c-0.974,16.038,10.739,31.048,21.611,41.495c7.798,7.486,16.587,14.439,25.544,20.481 c0.356,0.243,3.785,2.87,4.313,2.572c21.345-11.957,52.063-36.532,52.063-63.829 C264.396,151.755,252.739,141.545,238.361,141.546z" fill="#F7AD79"/></g><g id="change2_5"><path d="M212.226,231.702L212.226,231.702c-1.418,0-2.698-0.654-5.954-3.042l-0.24-0.175 c-9.524-6.424-18.275-13.441-25.978-20.835c-15.904-15.282-23.535-30.164-22.681-44.231c0.806-13.28,14.6-25.374,28.939-25.374 c11.232,0,21.02,5.619,26.008,13.866c1.39-2.303,3.178-4.431,5.333-6.319c5.555-4.866,12.908-7.546,20.706-7.546 c0.001,0,0.001,0,0.002,0c7.803,0,15.159,2.679,20.716,7.546c5.688,4.981,8.819,11.643,8.819,18.758 c0,34.946-44.859,61.845-53.852,66.883C213.502,231.538,212.87,231.702,212.226,231.702z M186.313,145.045 c-10.697,0-21.366,9.136-21.953,18.798c-0.901,14.854,10.674,29.276,20.543,38.759c7.309,7.016,15.979,13.968,25.076,20.103 c0.079,0.054,0.227,0.16,0.433,0.311c0.77,0.564,1.334,0.96,1.747,1.237c22.841-13.167,48.738-36.362,48.738-59.903 c0-5.068-2.284-9.859-6.432-13.492c-4.279-3.748-9.998-5.812-16.104-5.812c0,0-0.001,0-0.002,0 c-6.101,0-11.815,2.063-16.094,5.812c-4.147,3.633-6.432,8.424-6.432,13.491c0,1.933-1.567,3.5-3.5,3.5s-3.5-1.567-3.5-3.5 C208.834,153.704,198.73,145.045,186.313,145.045z" fill="#002747"/></g></g><g><g id="change3_1"><path d="M277.231,111.801c-35.688-35.68-93.546-35.68-129.235,0c-32.548,32.538-35.415,83.509-8.612,119.292 c-0.009,0-0.009,0-0.009,0L212.6,340.159l71.15-106.368c13.735-17,20.472-37.773,20.218-58.48 C303.684,152.291,294.787,129.367,277.231,111.801z M266.703,230.517c-1.018,1.029-2.065,2.01-3.132,2.962 c-16.444,14.717-37.728,21.076-58.339,19.095c-16.538-1.604-32.642-8.557-45.51-20.877c-0.405-0.387-0.811-0.783-1.208-1.18 c-29.868-29.877-29.868-78.311,0-108.188c29.877-29.877,78.32-29.877,108.188,0c14.697,14.699,22.151,33.896,22.388,53.16 C289.337,195.376,281.882,215.338,266.703,230.517z" fill="#E83F62"/></g><g id="change2_1"><path d="M212.6,343.659c-1.166,0-2.256-0.581-2.906-1.549l-73.225-109.066c-0.008-0.013-0.017-0.025-0.025-0.038 c-13.455-18.057-20.024-40.424-18.502-63.011c1.543-22.886,11.338-44.432,27.58-60.669 c17.922-17.917,41.749-27.785,67.093-27.785c25.343,0,49.17,9.867,67.092,27.785c17.595,17.605,27.454,41.023,27.762,65.942 c0.27,22.012-7.15,43.527-20.896,60.599l-71.063,106.238c-0.649,0.97-1.739,1.553-2.906,1.554 C212.602,343.659,212.601,343.659,212.6,343.659z M142.41,229.335l70.185,104.537l68.246-102.027 c0.059-0.087,0.121-0.172,0.187-0.254c12.787-15.826,19.691-35.798,19.44-56.238c-0.285-23.082-9.416-44.773-25.712-61.079 c-16.599-16.594-38.668-25.734-62.142-25.734s-45.544,9.14-62.144,25.735c-30.713,30.704-34.275,80.022-8.285,114.719 C142.268,229.104,142.342,229.218,142.41,229.335z M212.595,256.427c-2.561,0-5.15-0.125-7.697-0.369 c-18.048-1.75-34.505-9.3-47.596-21.833c-0.419-0.4-0.843-0.815-1.259-1.229c-31.186-31.196-31.186-81.949-0.004-113.141 c15.111-15.111,35.203-23.433,56.573-23.433s41.459,8.322,56.566,23.433c14.84,14.841,23.154,34.584,23.412,55.592 c0.269,21.742-8.046,42.179-23.413,57.546c-0.983,0.995-2.06,2.013-3.275,3.098C251.25,249.204,232.317,256.427,212.595,256.427 z M212.612,103.421c-19.501,0-37.834,7.594-51.623,21.383c-28.454,28.462-28.454,74.776,0.001,103.239 c0.375,0.375,0.762,0.753,1.148,1.122c11.949,11.44,26.966,18.329,43.432,19.926c2.322,0.224,4.687,0.337,7.024,0.337 c17.997,0,35.272-6.59,48.643-18.556c1.109-0.991,2.083-1.911,2.978-2.816c14.035-14.035,21.622-32.684,21.376-52.523 c-0.235-19.171-7.821-37.187-21.362-50.729C250.443,111.015,232.112,103.421,212.612,103.421z" fill="#002747"/></g></g></g><g><g id="change2_2"><path d="M270.127,202.972c-0.327,0-0.659-0.064-0.979-0.201c-1.27-0.541-1.86-2.01-1.319-3.28 c0.088-0.207,0.211-0.458,0.367-0.772c0.615-1.236,1.895-3.807,3.421-10.01c0.329-1.341,1.685-2.162,3.025-1.831 c1.341,0.33,2.16,1.685,1.83,3.025c-1.658,6.74-3.104,9.646-3.8,11.043c-0.103,0.207-0.187,0.37-0.244,0.505 C272.022,202.402,271.099,202.972,270.127,202.972z" fill="#002747"/></g><g id="change2_3"><path d="M276.822,176.296c-0.058,0-0.116-0.002-0.174-0.006c-1.378-0.095-2.418-1.288-2.323-2.666 c2.459-35.836-32.99-49.563-33.349-49.697c-1.293-0.485-1.948-1.926-1.463-3.219c0.486-1.292,1.93-1.945,3.219-1.462 c0.394,0.148,39.292,15.212,36.581,54.722C279.223,175.287,278.125,176.296,276.822,176.296z" fill="#002747"/></g></g></g><g><g id="change1_1"><path d="M181.65 274.09L197.324 297.932" fill="#F7AD79"/></g><g id="change2_4"><path d="M197.326,300.433c-0.813,0-1.61-0.396-2.091-1.127l-15.674-23.842c-0.759-1.154-0.438-2.704,0.716-3.462 c1.152-0.758,2.703-0.439,3.462,0.715l15.674,23.842c0.759,1.154,0.438,2.704-0.716,3.462 C198.274,300.299,197.798,300.433,197.326,300.433z" fill="#002747"/></g></g><g><g id="change1_3"><path d="M172.531 259.203L174.482 262.251" fill="#F7AD79"/></g><g id="change2_6"><path d="M174.484,264.751c-0.823,0-1.63-0.407-2.107-1.152l-1.951-3.048c-0.744-1.163-0.405-2.709,0.758-3.454 c1.16-0.744,2.707-0.406,3.453,0.757l1.951,3.048c0.744,1.163,0.405,2.709-0.758,3.454 C175.413,264.624,174.946,264.751,174.484,264.751z" fill="#002747"/></g></g></g></svg>