<?xml version="1.0" encoding="UTF-8"?><svg xmlns="http://www.w3.org/2000/svg" xmlns:xlink="http://www.w3.org/1999/xlink" height="288.1" preserveAspectRatio="xMidYMid meet" version="1.0" viewBox="109.8 68.6 205.6 288.1" width="205.6" zoomAndPan="magnify"><g><g id="change1_1"><path d="M 269.070312 347.898438 C 269.019531 338.921875 261.714844 331.648438 252.714844 331.648438 C 248.886719 331.648438 245.382812 332.976562 242.589844 335.164062 L 230.882812 280.359375 L 194.324219 280.359375 L 182.609375 335.164062 C 179.828125 332.976562 176.320312 331.648438 172.488281 331.648438 C 163.484375 331.648438 156.183594 338.921875 156.136719 347.898438 L 156.136719 354.625 L 269.070312 354.625 L 269.070312 347.898438" fill="#ec6171"/></g><g id="change2_1"><path d="M 269.070312 347.898438 L 271.070312 347.890625 C 271.011719 337.808594 262.816406 329.648438 252.714844 329.648438 C 248.421875 329.644531 244.472656 331.144531 241.355469 333.59375 L 242.589844 335.164062 L 244.546875 334.746094 L 232.839844 279.941406 C 232.640625 279.019531 231.824219 278.359375 230.882812 278.359375 L 194.324219 278.359375 C 193.382812 278.359375 192.566406 279.019531 192.367188 279.941406 L 180.652344 334.746094 L 182.609375 335.164062 L 183.847656 333.59375 C 180.734375 331.140625 176.785156 329.648438 172.488281 329.648438 C 162.382812 329.648438 154.191406 337.808594 154.136719 347.890625 L 154.136719 354.625 C 154.136719 355.152344 154.351562 355.667969 154.722656 356.039062 C 155.09375 356.410156 155.609375 356.625 156.136719 356.625 L 269.070312 356.625 C 269.597656 356.625 270.109375 356.410156 270.484375 356.039062 C 270.855469 355.667969 271.070312 355.152344 271.070312 354.625 L 271.070312 347.890625 L 269.070312 347.898438 L 267.070312 347.898438 L 267.070312 352.625 L 158.136719 352.625 L 158.136719 347.898438 L 158.136719 347.910156 C 158.175781 340.035156 164.585938 333.644531 172.488281 333.648438 C 175.851562 333.648438 178.921875 334.808594 181.371094 336.738281 C 181.914062 337.164062 182.640625 337.28125 183.289062 337.046875 C 183.9375 336.8125 184.421875 336.257812 184.566406 335.585938 L 195.941406 282.359375 L 229.265625 282.359375 L 240.632812 335.585938 C 240.777344 336.257812 241.261719 336.8125 241.90625 337.046875 C 242.554688 337.28125 243.28125 337.164062 243.824219 336.738281 C 246.289062 334.808594 249.355469 333.648438 252.714844 333.648438 C 260.613281 333.644531 267.027344 340.035156 267.070312 347.910156 L 267.070312 347.898438 L 269.070312 347.898438" fill="#180d0c"/></g><g id="change1_2"><path d="M 165.136719 345.617188 C 165.136719 350.59375 161.117188 354.632812 156.136719 354.632812 C 151.164062 354.632812 147.136719 350.59375 147.136719 345.617188 C 147.136719 340.644531 151.164062 336.617188 156.136719 336.617188 C 161.117188 336.617188 165.136719 340.644531 165.136719 345.617188" fill="#ec6171"/></g><g id="change2_2"><path d="M 165.136719 345.617188 L 163.136719 345.617188 C 163.132812 347.5625 162.355469 349.304688 161.085938 350.578125 C 159.816406 351.847656 158.082031 352.628906 156.136719 352.632812 C 154.199219 352.628906 152.460938 351.847656 151.1875 350.578125 C 149.917969 349.300781 149.136719 347.5625 149.136719 345.617188 C 149.140625 343.675781 149.917969 341.9375 151.1875 340.667969 C 152.460938 339.398438 154.195312 338.617188 156.136719 338.617188 C 160.011719 338.617188 163.132812 341.746094 163.136719 345.617188 L 167.136719 345.617188 C 167.136719 342.589844 165.90625 339.824219 163.917969 337.839844 C 161.933594 335.851562 159.171875 334.617188 156.136719 334.617188 C 150.058594 334.617188 145.136719 339.539062 145.136719 345.617188 C 145.140625 351.695312 150.058594 356.628906 156.136719 356.632812 C 159.171875 356.632812 161.9375 355.394531 163.917969 353.402344 C 165.90625 351.414062 167.136719 348.648438 167.136719 345.617188 L 165.136719 345.617188" fill="#180d0c"/></g><g id="change1_3"><path d="M 277.1875 345.625 C 277.1875 350.589844 273.160156 354.625 268.1875 354.625 C 263.214844 354.625 259.1875 350.589844 259.1875 345.625 C 259.1875 340.648438 263.214844 336.621094 268.1875 336.621094 C 273.160156 336.621094 277.1875 340.648438 277.1875 345.625" fill="#ec6171"/></g><g id="change2_3"><path d="M 277.1875 345.625 L 275.1875 345.625 C 275.1875 347.558594 274.40625 349.296875 273.136719 350.570312 C 271.863281 351.84375 270.128906 352.625 268.1875 352.625 C 266.246094 352.625 264.507812 351.84375 263.234375 350.570312 C 261.964844 349.296875 261.1875 347.558594 261.183594 345.625 C 261.1875 343.683594 261.964844 341.945312 263.234375 340.671875 C 264.507812 339.402344 266.246094 338.625 268.1875 338.621094 C 270.128906 338.625 271.867188 339.402344 273.136719 340.671875 C 274.40625 341.945312 275.1875 343.683594 275.1875 345.625 L 279.1875 345.625 C 279.1875 339.542969 274.265625 334.625 268.1875 334.621094 C 262.109375 334.621094 257.1875 339.542969 257.183594 345.625 C 257.1875 351.691406 262.105469 356.621094 268.1875 356.625 C 274.269531 356.621094 279.183594 351.691406 279.1875 345.625 L 277.1875 345.625" fill="#180d0c"/></g><g id="change1_4"><path d="M 266.035156 314.324219 C 266.035156 319.289062 262.007812 323.324219 257.035156 323.324219 C 252.0625 323.324219 248.03125 319.289062 248.03125 314.324219 C 248.03125 309.351562 252.0625 305.324219 257.035156 305.324219 C 262.007812 305.324219 266.035156 309.351562 266.035156 314.324219" fill="#ec6171"/></g><g id="change2_4"><path d="M 266.035156 314.324219 L 264.035156 314.324219 C 264.035156 316.261719 263.253906 317.996094 261.984375 319.273438 C 260.710938 320.542969 258.976562 321.324219 257.035156 321.324219 C 255.09375 321.324219 253.355469 320.542969 252.082031 319.273438 C 250.8125 317.996094 250.035156 316.261719 250.03125 314.324219 C 250.035156 312.382812 250.8125 310.644531 252.082031 309.371094 C 253.355469 308.101562 255.09375 307.324219 257.035156 307.324219 C 258.976562 307.324219 260.714844 308.101562 261.984375 309.371094 C 263.253906 310.644531 264.035156 312.382812 264.035156 314.324219 L 268.035156 314.324219 C 268.035156 308.246094 263.113281 303.324219 257.035156 303.324219 C 250.957031 303.324219 246.03125 308.246094 246.03125 314.324219 C 246.035156 320.394531 250.953125 325.324219 257.035156 325.324219 C 263.113281 325.324219 268.03125 320.394531 268.035156 314.324219 L 266.035156 314.324219" fill="#180d0c"/></g><g id="change1_5"><path d="M 170.96875 319.292969 C 170.96875 322.507812 168.359375 325.125 165.136719 325.125 C 161.910156 325.125 159.300781 322.507812 159.300781 319.292969 C 159.300781 316.066406 161.910156 313.460938 165.136719 313.460938 C 168.359375 313.460938 170.96875 316.066406 170.96875 319.292969" fill="#ec6171"/></g><g id="change2_5"><path d="M 170.96875 319.292969 L 168.96875 319.292969 C 168.96875 320.355469 168.542969 321.300781 167.84375 322 C 167.144531 322.699219 166.199219 323.125 165.136719 323.125 C 164.070312 323.125 163.125 322.699219 162.425781 322 C 161.726562 321.300781 161.300781 320.355469 161.300781 319.292969 C 161.304688 318.226562 161.726562 317.28125 162.425781 316.582031 C 163.121094 315.886719 164.070312 315.460938 165.136719 315.460938 C 166.203125 315.460938 167.148438 315.886719 167.847656 316.582031 C 168.542969 317.28125 168.96875 318.226562 168.96875 319.292969 L 172.96875 319.292969 C 172.96875 314.964844 169.464844 311.460938 165.136719 311.460938 C 160.808594 311.460938 157.300781 314.964844 157.300781 319.292969 C 157.304688 323.613281 160.804688 327.121094 165.136719 327.125 C 169.464844 327.121094 172.964844 323.613281 172.96875 319.292969 L 170.96875 319.292969" fill="#180d0c"/></g><g id="change1_6"><path d="M 203.316406 291.390625 L 190.378906 344.15625" fill="#ec6171"/></g><g id="change2_6"><path d="M 201.375 290.914062 L 188.4375 343.679688 C 188.175781 344.753906 188.832031 345.835938 189.902344 346.101562 C 190.976562 346.363281 192.058594 345.707031 192.320312 344.632812 L 205.261719 291.867188 C 205.523438 290.792969 204.867188 289.710938 203.792969 289.449219 C 202.722656 289.183594 201.636719 289.84375 201.375 290.914062" fill="#180d0c"/></g><g id="change1_7"><path d="M 221.882812 291.390625 L 231.480469 344.15625" fill="#ec6171"/></g><g id="change2_7"><path d="M 219.914062 291.746094 L 229.511719 344.515625 C 229.710938 345.601562 230.75 346.324219 231.839844 346.125 C 232.925781 345.925781 233.644531 344.886719 233.449219 343.796875 L 223.851562 291.03125 C 223.652344 289.945312 222.613281 289.226562 221.527344 289.421875 C 220.4375 289.621094 219.71875 290.660156 219.914062 291.746094" fill="#180d0c"/></g><g id="change2_8"><path d="M 210.601562 305.324219 L 210.601562 351.9375 C 210.601562 353.042969 211.496094 353.9375 212.601562 353.9375 C 213.703125 353.9375 214.601562 353.042969 214.601562 351.9375 L 214.601562 305.324219 C 214.601562 304.21875 213.703125 303.324219 212.601562 303.324219 C 211.496094 303.324219 210.601562 304.21875 210.601562 305.324219" fill="#180d0c"/></g><g id="change1_8"><path d="M 283.886719 204.410156 C 283.886719 214.308594 278.917969 222.328125 272.769531 222.328125 C 266.644531 222.328125 261.667969 214.308594 261.667969 204.410156 C 261.667969 194.535156 266.644531 186.527344 272.769531 186.527344 C 278.917969 186.527344 283.886719 194.535156 283.886719 204.410156" fill="#ec6171"/></g><g id="change2_9"><path d="M 283.886719 204.410156 L 281.886719 204.410156 C 281.890625 209.023438 280.710938 213.171875 278.933594 216.027344 C 278.050781 217.453125 277.023438 218.554688 275.972656 219.265625 C 274.917969 219.980469 273.867188 220.324219 272.769531 220.328125 C 271.683594 220.324219 270.632812 219.980469 269.578125 219.269531 C 268.007812 218.203125 266.492188 216.246094 265.410156 213.65625 C 264.324219 211.070312 263.667969 207.871094 263.667969 204.410156 C 263.664062 199.808594 264.847656 195.671875 266.621094 192.820312 C 267.507812 191.394531 268.53125 190.296875 269.578125 189.585938 C 270.632812 188.871094 271.679688 188.53125 272.769531 188.527344 C 273.867188 188.53125 274.921875 188.871094 275.976562 189.585938 C 277.550781 190.648438 279.066406 192.597656 280.144531 195.1875 C 281.230469 197.769531 281.886719 200.960938 281.886719 204.410156 L 285.886719 204.410156 C 285.878906 199.136719 284.574219 194.335938 282.332031 190.710938 C 281.207031 188.898438 279.835938 187.378906 278.226562 186.277344 C 276.621094 185.183594 274.746094 184.523438 272.769531 184.527344 C 270.800781 184.523438 268.929688 185.183594 267.324219 186.28125 C 264.914062 187.933594 263.039062 190.515625 261.722656 193.640625 C 260.410156 196.765625 259.671875 200.453125 259.667969 204.410156 C 259.675781 209.695312 260.980469 214.503906 263.222656 218.132812 C 264.347656 219.945312 265.71875 221.472656 267.324219 222.570312 C 268.925781 223.667969 270.796875 224.328125 272.769531 224.328125 C 274.746094 224.328125 276.621094 223.671875 278.226562 222.570312 C 280.640625 220.917969 282.519531 218.328125 283.835938 215.199219 C 285.144531 212.070312 285.882812 208.375 285.886719 204.410156 L 283.886719 204.410156" fill="#180d0c"/></g><g id="change1_9"><path d="M 141.316406 204.410156 C 141.316406 214.308594 146.285156 222.328125 152.429688 222.328125 C 158.5625 222.328125 163.535156 214.308594 163.535156 204.410156 C 163.535156 194.535156 158.5625 186.527344 152.429688 186.527344 C 146.285156 186.527344 141.316406 194.535156 141.316406 204.410156" fill="#ec6171"/></g><g id="change2_10"><path d="M 141.316406 204.410156 L 139.316406 204.410156 C 139.320312 209.695312 140.625 214.503906 142.867188 218.132812 C 143.996094 219.945312 145.363281 221.472656 146.976562 222.570312 C 148.578125 223.671875 150.453125 224.328125 152.429688 224.328125 C 154.402344 224.328125 156.273438 223.671875 157.878906 222.570312 C 160.289062 220.917969 162.167969 218.328125 163.484375 215.203125 C 164.792969 212.070312 165.535156 208.375 165.535156 204.410156 C 165.53125 199.136719 164.226562 194.335938 161.980469 190.710938 C 160.855469 188.898438 159.488281 187.378906 157.878906 186.28125 C 156.273438 185.183594 154.402344 184.523438 152.429688 184.527344 C 150.453125 184.523438 148.578125 185.183594 146.976562 186.277344 C 144.5625 187.929688 142.683594 190.515625 141.367188 193.640625 C 140.058594 196.765625 139.316406 200.453125 139.316406 204.410156 L 143.316406 204.410156 C 143.308594 199.808594 144.492188 195.667969 146.269531 192.820312 C 147.152344 191.394531 148.175781 190.296875 149.226562 189.585938 C 150.28125 188.871094 151.332031 188.53125 152.429688 188.527344 C 153.519531 188.53125 154.570312 188.871094 155.625 189.585938 C 157.199219 190.648438 158.714844 192.601562 159.796875 195.1875 C 160.882812 197.769531 161.539062 200.960938 161.535156 204.410156 C 161.542969 209.023438 160.359375 213.171875 158.582031 216.027344 C 157.699219 217.453125 156.671875 218.554688 155.625 219.265625 C 154.570312 219.980469 153.519531 220.324219 152.429688 220.328125 C 151.335938 220.324219 150.28125 219.980469 149.226562 219.265625 C 147.652344 218.203125 146.136719 216.246094 145.058594 213.65625 C 143.972656 211.070312 143.3125 207.871094 143.316406 204.410156 L 141.316406 204.410156" fill="#180d0c"/></g><g id="change1_10"><path d="M 144.8125 146.476562 L 159.332031 146.476562 L 159.332031 118.101562 L 144.8125 118.101562 Z M 144.8125 146.476562" fill="#ec6171"/></g><g id="change2_11"><path d="M 159.328125 116.101562 L 144.8125 116.101562 C 144.285156 116.101562 143.769531 116.3125 143.398438 116.6875 C 143.023438 117.058594 142.8125 117.574219 142.8125 118.101562 L 142.8125 146.476562 C 142.8125 147.003906 143.023438 147.515625 143.398438 147.890625 C 143.769531 148.261719 144.285156 148.476562 144.8125 148.476562 L 159.328125 148.476562 C 160.433594 148.476562 161.328125 147.578125 161.328125 146.476562 C 161.328125 145.371094 160.433594 144.476562 159.328125 144.476562 L 146.8125 144.476562 L 146.8125 120.101562 L 159.328125 120.101562 C 160.433594 120.101562 161.328125 119.203125 161.328125 118.101562 C 161.328125 116.996094 160.433594 116.101562 159.328125 116.101562" fill="#180d0c"/></g><g id="change1_11"><path d="M 265.871094 146.476562 L 280.386719 146.476562 L 280.386719 118.101562 L 265.871094 118.101562 Z M 265.871094 146.476562" fill="#ec6171"/></g><g id="change2_12"><path d="M 265.871094 120.101562 L 278.386719 120.101562 L 278.386719 144.476562 L 265.871094 144.476562 C 264.765625 144.476562 263.871094 145.371094 263.871094 146.476562 C 263.871094 147.578125 264.765625 148.476562 265.871094 148.476562 L 280.386719 148.476562 C 280.914062 148.476562 281.429688 148.261719 281.800781 147.890625 C 282.175781 147.515625 282.386719 147.003906 282.386719 146.476562 L 282.386719 118.101562 C 282.386719 117.574219 282.175781 117.058594 281.800781 116.6875 C 281.429688 116.3125 280.914062 116.101562 280.386719 116.101562 L 265.871094 116.101562 C 264.765625 116.101562 263.871094 116.996094 263.871094 118.101562 C 263.871094 119.203125 264.765625 120.101562 265.871094 120.101562" fill="#180d0c"/></g><g id="change1_12"><path d="M 268.292969 132.292969 C 268.292969 148.6875 255.007812 161.964844 238.625 161.964844 L 186.589844 161.964844 C 170.203125 161.964844 156.90625 148.6875 156.90625 132.292969 C 156.90625 115.898438 170.203125 102.613281 186.589844 102.613281 L 238.625 102.613281 C 255.007812 102.613281 268.292969 115.898438 268.292969 132.292969" fill="#ec6171"/></g><g id="change2_13"><path d="M 268.292969 132.292969 L 266.292969 132.292969 C 266.292969 139.945312 263.199219 146.847656 258.1875 151.863281 C 253.175781 156.871094 246.269531 159.960938 238.625 159.964844 L 186.589844 159.964844 C 178.941406 159.960938 172.03125 156.871094 167.015625 151.859375 C 162.003906 146.847656 158.90625 139.945312 158.90625 132.292969 C 158.90625 124.644531 162.003906 117.734375 167.015625 112.71875 C 172.03125 107.707031 178.941406 104.613281 186.589844 104.613281 L 238.625 104.613281 C 246.269531 104.613281 253.175781 107.707031 258.1875 112.71875 C 263.199219 117.734375 266.292969 124.644531 266.292969 132.292969 L 270.292969 132.292969 C 270.292969 114.796875 256.113281 100.613281 238.625 100.613281 L 186.589844 100.613281 C 169.097656 100.613281 154.90625 114.792969 154.90625 132.292969 C 154.90625 149.792969 169.097656 163.960938 186.589844 163.964844 L 238.625 163.964844 C 256.113281 163.960938 270.292969 149.792969 270.292969 132.292969 L 268.292969 132.292969" fill="#180d0c"/></g><g id="change3_1"><path d="M 238.625 159.964844 L 186.589844 159.964844 C 178.941406 159.960938 172.03125 156.871094 167.015625 151.859375 C 162.433594 147.28125 159.453125 141.121094 158.972656 134.257812 C 163.320312 145.25 174.050781 153.023438 186.589844 153.023438 L 238.625 153.023438 C 251.160156 153.023438 261.878906 145.253906 266.226562 134.257812 C 265.742188 141.125 262.765625 147.28125 258.1875 151.863281 C 253.175781 156.871094 246.269531 159.960938 238.625 159.964844" fill="#c3505c"/></g><g id="change4_1"><path d="M 238.625 161.964844 L 229.066406 161.964844 C 223.945312 160.667969 218.398438 159.964844 212.605469 159.964844 L 212.605469 161.964844 L 212.605469 159.964844 C 206.808594 159.964844 201.261719 160.667969 196.140625 161.964844 L 186.589844 161.964844 C 170.203125 161.964844 156.90625 148.6875 156.90625 132.292969 C 156.90625 130.773438 157.019531 129.28125 157.242188 127.824219 C 157.578125 130.058594 158.164062 132.214844 158.972656 134.257812 C 159.453125 141.121094 162.433594 147.28125 167.015625 151.859375 C 172.03125 156.871094 178.941406 159.960938 186.589844 159.964844 L 238.625 159.964844 C 246.269531 159.960938 253.175781 156.871094 258.1875 151.863281 C 262.765625 147.28125 265.742188 141.125 266.226562 134.257812 C 267.03125 132.214844 267.621094 130.0625 267.957031 127.824219 C 268.179688 129.28125 268.292969 130.773438 268.292969 132.292969 C 268.292969 148.6875 255.007812 161.964844 238.625 161.964844" fill="#160b0a"/></g><g id="change1_13"><path d="M 188.289062 149.960938 L 236.910156 149.960938 L 241.640625 145.214844" fill="#ec6171"/></g><g id="change2_14"><path d="M 188.289062 151.960938 L 236.910156 151.960938 C 237.441406 151.960938 237.949219 151.75 238.324219 151.371094 L 243.058594 146.625 C 243.839844 145.84375 243.835938 144.574219 243.054688 143.796875 C 242.269531 143.015625 241.003906 143.019531 240.226562 143.800781 L 236.078125 147.960938 L 188.289062 147.960938 C 187.183594 147.960938 186.289062 148.855469 186.289062 149.960938 C 186.289062 151.066406 187.183594 151.960938 188.289062 151.960938" fill="#180d0c"/></g><g id="change1_14"><path d="M 212.605469 161.964844 C 188.054688 161.964844 168.164062 175.019531 168.164062 191.113281 L 168.164062 264.59375 L 257.035156 264.59375 L 257.035156 191.113281 C 257.035156 175.019531 237.15625 161.964844 212.605469 161.964844" fill="#ec6171"/></g><g id="change2_15"><path d="M 212.605469 161.964844 L 212.605469 159.964844 C 199.972656 159.96875 188.511719 163.304688 180.078125 168.832031 C 175.867188 171.597656 172.402344 174.921875 169.972656 178.6875 C 167.546875 182.449219 166.160156 186.675781 166.164062 191.113281 L 166.164062 264.59375 C 166.164062 265.121094 166.378906 265.636719 166.75 266.007812 C 167.121094 266.378906 167.636719 266.59375 168.164062 266.59375 L 257.035156 266.59375 C 257.5625 266.59375 258.074219 266.378906 258.449219 266.007812 C 258.820312 265.632812 259.035156 265.117188 259.035156 264.59375 L 259.035156 191.113281 C 259.035156 186.675781 257.652344 182.449219 255.226562 178.6875 C 251.578125 173.035156 245.628906 168.386719 238.261719 165.113281 C 230.890625 161.847656 222.078125 159.964844 212.605469 159.964844 L 212.605469 163.964844 C 224.527344 163.957031 235.28125 167.148438 242.929688 172.175781 C 246.753906 174.6875 249.796875 177.644531 251.863281 180.851562 C 253.929688 184.066406 255.03125 187.507812 255.035156 191.113281 L 255.035156 262.59375 L 170.164062 262.59375 L 170.164062 191.113281 C 170.164062 187.507812 171.269531 184.066406 173.335938 180.851562 C 176.433594 176.039062 181.746094 171.789062 188.5625 168.773438 C 195.375 165.75 203.664062 163.960938 212.605469 163.964844 L 212.605469 161.964844" fill="#180d0c"/></g><g id="change1_15"><path d="M 184.734375 191.113281 L 240.476562 191.113281 C 240.476562 181.023438 227.996094 172.820312 212.605469 172.820312" fill="#ec6171"/></g><g id="change2_16"><path d="M 184.734375 193.113281 L 240.476562 193.113281 C 241.003906 193.113281 241.519531 192.898438 241.890625 192.527344 C 242.265625 192.15625 242.476562 191.640625 242.476562 191.113281 C 242.480469 188.175781 241.558594 185.375 239.96875 182.914062 C 237.574219 179.214844 233.722656 176.21875 229 174.121094 C 224.269531 172.023438 218.644531 170.824219 212.605469 170.820312 C 211.5 170.820312 210.601562 171.71875 210.601562 172.820312 C 210.601562 173.925781 211.5 174.820312 212.605469 174.820312 C 219.945312 174.816406 226.5625 176.792969 231.214844 179.855469 C 233.542969 181.382812 235.378906 183.171875 236.605469 185.082031 C 237.835938 186.996094 238.476562 189.007812 238.476562 191.113281 L 240.476562 191.113281 L 240.476562 189.113281 L 184.734375 189.113281 C 183.628906 189.113281 182.734375 190.007812 182.734375 191.113281 C 182.734375 192.21875 183.628906 193.113281 184.734375 193.113281" fill="#180d0c"/></g><g id="change1_16"><path d="M 274.945312 117.832031 L 267.6875 117.832031 L 267.6875 90.816406 L 274.945312 90.816406 L 274.945312 117.832031" fill="#ec6171"/></g><g id="change2_17"><path d="M 274.945312 117.832031 L 274.945312 115.832031 L 269.6875 115.832031 L 269.6875 92.816406 L 272.945312 92.816406 L 272.945312 117.832031 L 274.945312 117.832031 L 274.945312 115.832031 L 274.945312 117.832031 L 276.945312 117.832031 L 276.945312 90.816406 C 276.945312 90.289062 276.734375 89.773438 276.359375 89.402344 C 275.988281 89.03125 275.472656 88.816406 274.945312 88.816406 L 267.6875 88.816406 C 267.160156 88.816406 266.644531 89.03125 266.269531 89.402344 C 265.898438 89.773438 265.683594 90.289062 265.683594 90.816406 L 265.683594 117.832031 C 265.683594 118.359375 265.898438 118.871094 266.269531 119.246094 C 266.644531 119.617188 267.160156 119.832031 267.6875 119.832031 L 274.945312 119.832031 C 275.472656 119.832031 275.988281 119.617188 276.359375 119.246094 C 276.734375 118.871094 276.945312 118.359375 276.945312 117.832031 L 274.945312 117.832031" fill="#180d0c"/></g><g id="change1_17"><path d="M 157.523438 117.832031 L 150.25 117.832031 L 150.25 90.816406 L 157.523438 90.816406 L 157.523438 117.832031" fill="#ec6171"/></g><g id="change2_18"><path d="M 157.523438 117.832031 L 157.523438 115.832031 L 152.25 115.832031 L 152.25 92.816406 L 155.523438 92.816406 L 155.523438 117.832031 L 157.523438 117.832031 L 157.523438 115.832031 L 157.523438 117.832031 L 159.523438 117.832031 L 159.523438 90.816406 C 159.523438 90.289062 159.308594 89.773438 158.9375 89.402344 C 158.566406 89.03125 158.050781 88.816406 157.523438 88.816406 L 150.25 88.816406 C 149.722656 88.816406 149.210938 89.03125 148.835938 89.402344 C 148.464844 89.773438 148.25 90.289062 148.25 90.816406 L 148.25 117.832031 C 148.25 118.359375 148.464844 118.871094 148.835938 119.246094 C 149.210938 119.617188 149.722656 119.832031 150.25 119.832031 L 157.523438 119.832031 C 158.050781 119.832031 158.566406 119.617188 158.9375 119.246094 C 159.308594 118.871094 159.523438 118.359375 159.523438 117.832031 L 157.523438 117.832031" fill="#180d0c"/></g><g id="change5_1"><path d="M 230.429688 102.0625 L 194.773438 102.0625 L 194.773438 92.78125 L 230.429688 92.78125 L 230.429688 102.0625" fill="#70cfc7"/></g><g id="change2_19"><path d="M 230.429688 102.0625 L 230.429688 100.0625 L 196.773438 100.0625 L 196.773438 94.78125 L 228.425781 94.78125 L 228.425781 102.0625 L 230.429688 102.0625 L 230.429688 100.0625 L 230.429688 102.0625 L 232.429688 102.0625 L 232.429688 92.78125 C 232.429688 92.253906 232.214844 91.738281 231.84375 91.367188 C 231.46875 90.996094 230.953125 90.78125 230.429688 90.78125 L 194.773438 90.78125 C 194.25 90.78125 193.734375 90.996094 193.359375 91.367188 C 192.988281 91.738281 192.773438 92.253906 192.773438 92.78125 L 192.773438 102.0625 C 192.773438 102.589844 192.988281 103.105469 193.359375 103.476562 C 193.734375 103.851562 194.25 104.0625 194.773438 104.0625 L 230.429688 104.0625 C 230.953125 104.0625 231.46875 103.851562 231.84375 103.476562 C 232.214844 103.105469 232.429688 102.589844 232.429688 102.0625 L 230.429688 102.0625" fill="#180d0c"/></g><g id="change1_18"><path d="M 199.390625 126 C 199.390625 132.144531 194.421875 137.117188 188.289062 137.117188 C 182.15625 137.117188 177.175781 132.144531 177.175781 126 C 177.175781 119.871094 182.15625 114.894531 188.289062 114.894531 C 194.421875 114.894531 199.390625 119.871094 199.390625 126" fill="#ec6171"/></g><g id="change2_20"><path d="M 199.390625 126 L 197.390625 126 C 197.390625 128.527344 196.375 130.792969 194.722656 132.449219 C 193.070312 134.101562 190.808594 135.117188 188.289062 135.117188 C 185.769531 135.117188 183.503906 134.101562 181.847656 132.449219 C 180.191406 130.792969 179.175781 128.523438 179.175781 126 C 179.175781 123.484375 180.191406 121.21875 181.847656 119.5625 C 183.503906 117.910156 185.769531 116.894531 188.289062 116.894531 C 190.808594 116.894531 193.070312 117.910156 194.722656 119.5625 C 196.375 121.21875 197.390625 123.480469 197.390625 126 L 201.390625 126 C 201.390625 118.765625 195.527344 112.898438 188.289062 112.894531 C 181.050781 112.898438 175.179688 118.761719 175.175781 126 C 175.175781 133.25 181.050781 139.117188 188.289062 139.117188 C 195.527344 139.117188 201.390625 133.246094 201.390625 126 L 199.390625 126" fill="#180d0c"/></g><g id="change5_2"><path d="M 199.390625 126 C 199.390625 132.144531 194.421875 137.117188 188.289062 137.117188 C 182.15625 137.117188 177.175781 132.144531 177.175781 126 C 177.175781 119.871094 182.15625 114.894531 188.289062 114.894531 C 194.421875 114.894531 199.390625 119.871094 199.390625 126" fill="#70cfc7"/></g><g id="change2_21"><path d="M 199.390625 126 L 197.390625 126 C 197.390625 128.527344 196.375 130.792969 194.722656 132.449219 C 193.070312 134.101562 190.808594 135.117188 188.289062 135.117188 C 185.769531 135.117188 183.503906 134.101562 181.847656 132.449219 C 180.191406 130.792969 179.175781 128.523438 179.175781 126 C 179.175781 123.484375 180.191406 121.21875 181.847656 119.5625 C 183.503906 117.910156 185.769531 116.894531 188.289062 116.894531 C 190.808594 116.894531 193.070312 117.910156 194.722656 119.5625 C 196.375 121.21875 197.390625 123.480469 197.390625 126 L 201.390625 126 C 201.390625 118.765625 195.527344 112.898438 188.289062 112.894531 C 181.050781 112.898438 175.179688 118.761719 175.175781 126 C 175.175781 133.25 181.050781 139.117188 188.289062 139.117188 C 195.527344 139.117188 201.390625 133.246094 201.390625 126 L 199.390625 126" fill="#180d0c"/></g><g id="change5_3"><path d="M 248.023438 126 C 248.023438 132.144531 243.054688 137.117188 236.910156 137.117188 C 230.789062 137.117188 225.820312 132.144531 225.820312 126 C 225.820312 119.871094 230.789062 114.894531 236.910156 114.894531 C 243.054688 114.894531 248.023438 119.871094 248.023438 126" fill="#70cfc7"/></g><g id="change2_22"><path d="M 248.023438 126 L 246.023438 126 C 246.023438 128.527344 245.007812 130.792969 243.355469 132.449219 C 241.703125 134.101562 239.4375 135.117188 236.910156 135.117188 C 234.398438 135.117188 232.136719 134.101562 230.484375 132.449219 C 228.835938 130.792969 227.820312 128.527344 227.820312 126 C 227.820312 123.480469 228.835938 121.21875 230.484375 119.5625 C 232.136719 117.910156 234.398438 116.894531 236.910156 116.894531 C 239.4375 116.894531 241.703125 117.914062 243.355469 119.5625 C 245.007812 121.21875 246.023438 123.480469 246.023438 126 L 250.023438 126 C 250.023438 118.765625 244.160156 112.894531 236.910156 112.894531 C 229.679688 112.898438 223.820312 118.765625 223.820312 126 C 223.820312 133.246094 229.679688 139.117188 236.910156 139.117188 C 240.527344 139.117188 243.820312 137.648438 246.1875 135.277344 C 248.554688 132.910156 250.023438 129.617188 250.023438 126 L 248.023438 126" fill="#180d0c"/></g><g id="change5_4"><path d="M 164.996094 81.664062 C 164.996094 87.808594 160.015625 92.78125 153.886719 92.78125 C 147.761719 92.78125 142.777344 87.808594 142.777344 81.664062 C 142.777344 75.53125 147.761719 70.570312 153.886719 70.570312 C 160.015625 70.570312 164.996094 75.53125 164.996094 81.664062" fill="#70cfc7"/></g><g id="change2_23"><path d="M 164.996094 81.664062 L 162.996094 81.664062 C 162.996094 84.1875 161.980469 86.453125 160.324219 88.113281 C 158.667969 89.765625 156.402344 90.78125 153.886719 90.78125 C 151.371094 90.78125 149.105469 89.765625 147.449219 88.113281 C 145.796875 86.457031 144.777344 84.1875 144.777344 81.664062 C 144.777344 79.144531 145.796875 76.886719 147.449219 75.234375 C 149.101562 73.585938 151.367188 72.570312 153.886719 72.570312 C 156.40625 72.570312 158.671875 73.585938 160.328125 75.234375 C 161.980469 76.886719 162.996094 79.144531 162.996094 81.664062 L 166.996094 81.664062 C 166.996094 74.425781 161.117188 68.570312 153.886719 68.570312 C 146.65625 68.570312 140.78125 74.425781 140.777344 81.664062 C 140.78125 88.910156 146.652344 94.777344 153.886719 94.78125 C 161.121094 94.777344 166.996094 88.910156 166.996094 81.664062 L 164.996094 81.664062" fill="#180d0c"/></g><g id="change5_5"><path d="M 282.421875 81.664062 C 282.421875 87.808594 277.457031 92.78125 271.316406 92.78125 C 265.191406 92.78125 260.214844 87.808594 260.214844 81.664062 C 260.214844 75.53125 265.191406 70.570312 271.316406 70.570312 C 277.457031 70.570312 282.421875 75.53125 282.421875 81.664062" fill="#70cfc7"/></g><g id="change2_24"><path d="M 282.421875 81.664062 L 280.421875 81.664062 C 280.417969 84.191406 279.40625 86.457031 277.757812 88.113281 C 276.105469 89.765625 273.84375 90.78125 271.316406 90.78125 C 268.800781 90.78125 266.539062 89.765625 264.886719 88.113281 C 263.234375 86.457031 262.21875 84.191406 262.214844 81.664062 C 262.21875 79.144531 263.230469 76.886719 264.882812 75.230469 C 266.535156 73.585938 268.800781 72.570312 271.316406 72.570312 C 276.355469 72.570312 280.421875 76.636719 280.421875 81.664062 L 284.421875 81.664062 C 284.421875 78.054688 282.953125 74.765625 280.585938 72.402344 C 278.222656 70.035156 274.933594 68.566406 271.316406 68.570312 C 264.089844 68.570312 258.21875 74.425781 258.214844 81.664062 C 258.21875 88.910156 264.085938 94.777344 271.316406 94.78125 C 274.933594 94.78125 278.222656 93.308594 280.585938 90.9375 C 282.953125 88.570312 284.421875 85.277344 284.421875 81.664062 L 282.421875 81.664062" fill="#180d0c"/></g><g id="change1_19"><path d="M 184.734375 255.710938 L 240.476562 255.710938 L 240.476562 197.980469 L 184.734375 197.980469 Z M 184.734375 255.710938" fill="#ec6171"/></g><g id="change2_25"><path d="M 240.476562 255.710938 L 240.476562 253.710938 L 186.734375 253.710938 L 186.734375 199.980469 L 238.476562 199.980469 L 238.476562 255.710938 L 240.476562 255.710938 L 240.476562 253.710938 L 240.476562 255.710938 L 242.476562 255.710938 L 242.476562 197.980469 C 242.476562 197.453125 242.265625 196.9375 241.890625 196.5625 C 241.519531 196.191406 241.003906 195.976562 240.476562 195.976562 L 184.734375 195.976562 C 184.207031 195.976562 183.691406 196.191406 183.320312 196.5625 C 182.945312 196.9375 182.734375 197.453125 182.734375 197.980469 L 182.734375 255.710938 C 182.734375 256.234375 182.945312 256.75 183.320312 257.121094 C 183.691406 257.496094 184.207031 257.710938 184.734375 257.710938 L 240.476562 257.710938 C 241.003906 257.710938 241.519531 257.496094 241.890625 257.121094 C 242.265625 256.75 242.476562 256.234375 242.476562 255.710938 L 240.476562 255.710938" fill="#180d0c"/></g><g id="change2_26"><path d="M 231.675781 217.351562 L 231.675781 235.625 C 231.675781 236.730469 232.570312 237.625 233.675781 237.625 C 234.777344 237.625 235.675781 236.730469 235.675781 235.625 L 235.675781 217.351562 C 235.675781 216.246094 234.777344 215.351562 233.675781 215.351562 C 232.570312 215.351562 231.675781 216.246094 231.675781 217.351562" fill="#180d0c"/></g><g id="change5_6"><path d="M 274.238281 225.757812 C 274.238281 230.703125 270.234375 234.707031 265.285156 234.707031 C 260.339844 234.707031 256.332031 230.703125 256.332031 225.757812 L 256.332031 183.097656 C 256.332031 178.140625 260.339844 174.148438 265.285156 174.148438 C 270.234375 174.148438 274.238281 178.140625 274.238281 183.097656 L 274.238281 225.757812" fill="#70cfc7"/></g><g id="change2_27"><path d="M 274.238281 225.757812 L 272.238281 225.757812 C 272.234375 227.683594 271.464844 229.410156 270.203125 230.671875 C 268.9375 231.933594 267.214844 232.707031 265.285156 232.707031 C 263.359375 232.707031 261.632812 231.933594 260.367188 230.671875 C 259.105469 229.40625 258.332031 227.683594 258.332031 225.757812 L 258.332031 183.097656 C 258.332031 179.246094 261.441406 176.148438 265.285156 176.148438 C 269.132812 176.148438 272.234375 179.242188 272.238281 183.097656 L 272.238281 225.757812 L 276.238281 225.757812 L 276.238281 183.097656 C 276.238281 180.074219 275.011719 177.320312 273.03125 175.347656 C 271.054688 173.371094 268.300781 172.148438 265.285156 172.148438 C 262.269531 172.148438 259.519531 173.371094 257.539062 175.347656 C 255.5625 177.320312 254.328125 180.074219 254.332031 183.097656 L 254.332031 225.757812 C 254.332031 231.808594 259.238281 236.707031 265.285156 236.707031 C 271.339844 236.707031 276.238281 231.808594 276.238281 225.757812 L 274.238281 225.757812" fill="#180d0c"/></g><g id="change5_7"><path d="M 150.964844 225.757812 C 150.964844 230.703125 154.980469 234.707031 159.917969 234.707031 C 164.878906 234.707031 168.886719 230.703125 168.886719 225.757812 L 168.886719 183.097656 C 168.886719 178.140625 164.878906 174.148438 159.917969 174.148438 C 154.980469 174.148438 150.964844 178.140625 150.964844 183.097656 L 150.964844 225.757812" fill="#70cfc7"/></g><g id="change2_28"><path d="M 150.964844 225.757812 L 148.964844 225.757812 C 148.964844 231.808594 153.875 236.703125 159.917969 236.707031 C 162.941406 236.707031 165.695312 235.480469 167.675781 233.503906 C 169.65625 231.527344 170.886719 228.777344 170.886719 225.757812 L 170.886719 183.097656 C 170.886719 180.074219 169.65625 177.320312 167.675781 175.347656 C 165.695312 173.371094 162.9375 172.148438 159.917969 172.148438 C 156.902344 172.148438 154.152344 173.371094 152.175781 175.347656 C 150.195312 177.320312 148.960938 180.070312 148.964844 183.097656 L 148.964844 225.757812 L 152.964844 225.757812 L 152.964844 183.097656 C 152.964844 181.164062 153.738281 179.441406 155 178.179688 C 156.265625 176.921875 157.992188 176.148438 159.917969 176.148438 C 163.78125 176.152344 166.882812 179.246094 166.886719 183.097656 L 166.886719 225.757812 C 166.882812 227.683594 166.109375 229.40625 164.847656 230.671875 C 163.582031 231.929688 161.855469 232.707031 159.917969 232.707031 C 157.992188 232.707031 156.265625 231.933594 155.003906 230.671875 C 153.738281 229.40625 152.964844 227.683594 152.964844 225.757812 L 150.964844 225.757812" fill="#180d0c"/></g><g id="change5_8"><path d="M 233.9375 264.59375 C 238.878906 264.59375 242.890625 268.597656 242.890625 273.539062 C 242.890625 278.480469 238.878906 282.496094 233.9375 282.496094 L 191.273438 282.496094 C 186.316406 282.496094 182.316406 278.480469 182.316406 273.539062 C 182.316406 268.597656 186.316406 264.59375 191.273438 264.59375 L 233.9375 264.59375" fill="#70cfc7"/></g><g id="change2_29"><path d="M 233.9375 264.59375 L 233.9375 266.59375 C 235.863281 266.59375 237.589844 267.367188 238.855469 268.628906 C 240.117188 269.890625 240.890625 271.613281 240.890625 273.539062 C 240.890625 275.464844 240.113281 277.191406 238.851562 278.457031 C 237.585938 279.722656 235.859375 280.496094 233.9375 280.496094 L 191.273438 280.496094 C 189.339844 280.496094 187.613281 279.722656 186.351562 278.457031 C 185.089844 277.191406 184.316406 275.464844 184.316406 273.539062 C 184.316406 269.699219 187.417969 266.59375 191.273438 266.59375 L 233.9375 266.59375 L 233.9375 262.59375 L 191.273438 262.59375 C 188.25 262.59375 185.496094 263.820312 183.523438 265.796875 C 181.542969 267.773438 180.316406 270.523438 180.316406 273.539062 C 180.316406 279.585938 185.210938 284.496094 191.273438 284.496094 L 233.9375 284.496094 C 239.984375 284.492188 244.890625 279.589844 244.890625 273.539062 C 244.890625 267.488281 239.980469 262.59375 233.9375 262.59375 L 233.9375 264.59375" fill="#180d0c"/></g><g id="change2_30"><path d="M 194.058594 282.140625 L 194.058594 264.957031 C 194.058594 263.851562 193.160156 262.957031 192.058594 262.957031 C 190.953125 262.957031 190.058594 263.851562 190.058594 264.957031 L 190.058594 282.140625 C 190.058594 283.246094 190.953125 284.140625 192.058594 284.140625 C 193.160156 284.140625 194.058594 283.246094 194.058594 282.140625" fill="#180d0c"/></g><g id="change2_31"><path d="M 202.179688 282.140625 L 202.179688 264.957031 C 202.179688 263.851562 201.285156 262.957031 200.179688 262.957031 C 199.074219 262.957031 198.179688 263.851562 198.179688 264.957031 L 198.179688 282.140625 C 198.179688 283.246094 199.074219 284.140625 200.179688 284.140625 C 201.285156 284.140625 202.179688 283.246094 202.179688 282.140625" fill="#180d0c"/></g><g id="change2_32"><path d="M 210.316406 282.140625 L 210.316406 264.957031 C 210.316406 263.851562 209.421875 262.957031 208.316406 262.957031 C 207.214844 262.957031 206.316406 263.851562 206.316406 264.957031 L 206.316406 282.140625 C 206.316406 283.246094 207.214844 284.140625 208.316406 284.140625 C 209.421875 284.140625 210.316406 283.246094 210.316406 282.140625" fill="#180d0c"/></g><g id="change2_33"><path d="M 218.4375 282.140625 L 218.4375 264.957031 C 218.4375 263.851562 217.539062 262.957031 216.4375 262.957031 C 215.332031 262.957031 214.4375 263.851562 214.4375 264.957031 L 214.4375 282.140625 C 214.4375 283.246094 215.332031 284.140625 216.4375 284.140625 C 217.539062 284.140625 218.4375 283.246094 218.4375 282.140625" fill="#180d0c"/></g><g id="change2_34"><path d="M 226.558594 282.140625 L 226.558594 264.957031 C 226.558594 263.851562 225.664062 262.957031 224.558594 262.957031 C 223.453125 262.957031 222.558594 263.851562 222.558594 264.957031 L 222.558594 282.140625 C 222.558594 283.246094 223.453125 284.140625 224.558594 284.140625 C 225.664062 284.140625 226.558594 283.246094 226.558594 282.140625" fill="#180d0c"/></g><g id="change2_35"><path d="M 234.695312 282.140625 L 234.695312 264.957031 C 234.695312 263.851562 233.800781 262.957031 232.695312 262.957031 C 231.589844 262.957031 230.695312 263.851562 230.695312 264.957031 L 230.695312 282.140625 C 230.695312 283.246094 231.589844 284.140625 232.695312 284.140625 C 233.800781 284.140625 234.695312 283.246094 234.695312 282.140625" fill="#180d0c"/></g><g id="change2_36"><path d="M 289.71875 296.453125 L 301.984375 281.636719 C 302.28125 281.28125 302.445312 280.824219 302.445312 280.359375 L 302.445312 235.625 C 302.445312 235.296875 302.363281 234.976562 302.210938 234.6875 L 285.652344 203.472656 C 285.136719 202.496094 283.925781 202.128906 282.949219 202.644531 C 281.972656 203.160156 281.601562 204.371094 282.117188 205.347656 L 298.445312 236.121094 L 298.445312 279.640625 L 286.636719 293.902344 C 285.929688 294.753906 286.050781 296.015625 286.902344 296.71875 C 287.753906 297.425781 289.011719 297.304688 289.71875 296.453125" fill="#180d0c"/></g><g id="change2_37"><path d="M 298.925781 281.664062 L 311.652344 296.480469 C 312.371094 297.320312 313.632812 297.414062 314.472656 296.695312 C 315.308594 295.976562 315.40625 294.714844 314.6875 293.875 L 301.960938 279.058594 C 301.242188 278.21875 299.980469 278.121094 299.140625 278.84375 C 298.304688 279.5625 298.207031 280.824219 298.925781 281.664062" fill="#180d0c"/></g><g id="change2_38"><path d="M 138.558594 293.902344 L 126.757812 279.640625 L 126.757812 236.121094 L 143.082031 205.347656 C 143.601562 204.371094 143.226562 203.160156 142.253906 202.644531 C 141.277344 202.128906 140.066406 202.496094 139.550781 203.472656 L 122.988281 234.6875 C 122.835938 234.976562 122.757812 235.296875 122.757812 235.625 L 122.757812 280.359375 C 122.757812 280.824219 122.921875 281.277344 123.214844 281.636719 L 135.476562 296.453125 C 136.183594 297.304688 137.441406 297.425781 138.292969 296.71875 C 139.144531 296.015625 139.265625 294.753906 138.558594 293.902344" fill="#180d0c"/></g><g id="change2_39"><path d="M 123.238281 279.058594 L 110.515625 293.875 C 109.792969 294.714844 109.890625 295.976562 110.726562 296.695312 C 111.566406 297.414062 112.828125 297.320312 113.550781 296.480469 L 126.273438 281.664062 C 126.992188 280.824219 126.898438 279.5625 126.058594 278.84375 C 125.222656 278.121094 123.957031 278.21875 123.238281 279.058594" fill="#180d0c"/></g><g id="change6_1"><path d="M 238.519531 120.671875 C 239.996094 122.5625 239.664062 125.292969 237.773438 126.769531 C 235.882812 128.25 233.152344 127.914062 231.671875 126.023438 C 230.191406 124.136719 230.527344 121.402344 232.421875 119.925781 C 234.308594 118.445312 237.039062 118.78125 238.519531 120.671875" fill="#fff"/></g><g id="change6_2"><path d="M 243.9375 124.554688 C 244.539062 125.324219 244.402344 126.4375 243.632812 127.039062 C 242.859375 127.644531 241.746094 127.503906 241.144531 126.734375 C 240.542969 125.964844 240.679688 124.855469 241.449219 124.25 C 242.222656 123.648438 243.335938 123.78125 243.9375 124.554688" fill="#fff"/></g><g id="change6_3"><path d="M 189.277344 120.671875 C 190.753906 122.5625 190.421875 125.292969 188.53125 126.769531 C 186.640625 128.25 183.90625 127.914062 182.429688 126.023438 C 180.949219 124.136719 181.285156 121.402344 183.175781 119.925781 C 185.066406 118.445312 187.796875 118.78125 189.277344 120.671875" fill="#fff"/></g><g id="change6_4"><path d="M 194.691406 124.554688 C 195.296875 125.324219 195.160156 126.4375 194.390625 127.039062 C 193.617188 127.644531 192.503906 127.503906 191.902344 126.734375 C 191.300781 125.964844 191.4375 124.855469 192.207031 124.25 C 192.980469 123.648438 194.09375 123.78125 194.691406 124.554688" fill="#fff"/></g><g id="change7_1"><path d="M 261.667969 132.84375 C 260.5625 132.84375 259.667969 131.945312 259.667969 130.84375 C 259.667969 124.847656 257.246094 119.441406 253.320312 115.511719 C 249.390625 111.585938 243.988281 109.164062 237.996094 109.160156 L 196.484375 109.160156 C 195.378906 109.160156 194.484375 108.265625 194.484375 107.160156 C 194.484375 106.058594 195.378906 105.160156 196.484375 105.160156 L 237.996094 105.160156 C 252.175781 105.164062 263.667969 116.65625 263.667969 130.84375 C 263.667969 131.945312 262.773438 132.84375 261.667969 132.84375" fill="#f5acae"/></g><g id="change8_1"><path d="M 277.527344 83.667969 C 276.425781 83.667969 275.527344 82.773438 275.527344 81.667969 C 275.527344 79.34375 273.648438 77.464844 271.316406 77.464844 C 270.214844 77.464844 269.316406 76.566406 269.316406 75.464844 C 269.316406 74.359375 270.214844 73.464844 271.316406 73.464844 C 271.320312 73.464844 271.320312 73.464844 271.320312 73.464844 C 273.582031 73.464844 275.644531 74.382812 277.125 75.863281 C 278.609375 77.34375 279.527344 79.410156 279.527344 81.667969 C 279.527344 82.773438 278.632812 83.667969 277.527344 83.667969" fill="#b8e7e0"/></g><g id="change8_2"><path d="M 160.011719 83.667969 C 158.90625 83.667969 158.011719 82.773438 158.011719 81.667969 C 158.011719 79.34375 156.132812 77.464844 153.800781 77.464844 C 152.695312 77.464844 151.800781 76.566406 151.800781 75.464844 C 151.800781 74.359375 152.695312 73.464844 153.800781 73.464844 C 153.800781 73.464844 153.800781 73.464844 153.804688 73.464844 C 156.0625 73.464844 158.128906 74.382812 159.605469 75.863281 C 161.089844 77.34375 162.011719 79.410156 162.011719 81.667969 C 162.011719 82.773438 161.113281 83.667969 160.011719 83.667969" fill="#b8e7e0"/></g><g id="change7_2"><path d="M 252.035156 228.84375 C 250.929688 228.84375 250.035156 227.949219 250.035156 226.84375 L 250.035156 193.605469 C 250.03125 190.453125 249.070312 187.445312 247.257812 184.625 C 245.441406 181.808594 242.765625 179.203125 239.394531 176.988281 C 232.65625 172.558594 223.160156 169.738281 212.632812 169.738281 C 212.621094 169.738281 212.613281 169.738281 212.601562 169.738281 C 211.496094 169.738281 210.601562 168.84375 210.601562 167.738281 C 210.601562 166.632812 211.496094 165.738281 212.601562 165.738281 C 221.039062 165.738281 228.890625 167.414062 235.464844 170.328125 C 242.035156 173.246094 247.351562 177.394531 250.617188 182.457031 C 252.792969 185.824219 254.035156 189.621094 254.035156 193.605469 L 254.035156 226.84375 C 254.035156 227.949219 253.140625 228.84375 252.035156 228.84375" fill="#f5acae"/></g><g id="change3_2"><path d="M 170.164062 262.59375 L 170.164062 229.671875 C 170.628906 228.457031 170.886719 227.136719 170.886719 225.757812 L 170.886719 186.132812 C 171.417969 184.316406 172.242188 182.554688 173.335938 180.851562 C 174.773438 178.617188 176.695312 176.5 179.019531 174.570312 C 177.996094 177.023438 177.449219 179.601562 177.449219 182.261719 L 177.449219 255.742188 L 182.734375 255.742188 C 182.742188 256.257812 182.953125 256.757812 183.320312 257.121094 C 183.691406 257.496094 184.207031 257.710938 184.734375 257.710938 L 240.476562 257.710938 C 241.003906 257.710938 241.519531 257.496094 241.890625 257.121094 C 242.257812 256.757812 242.46875 256.257812 242.476562 255.742188 L 255.035156 255.742188 L 255.035156 262.59375 L 170.164062 262.59375" fill="#c3505c"/></g><g id="change4_2"><path d="M 257.035156 264.59375 L 240.25 264.59375 C 238.464844 263.332031 236.289062 262.59375 233.9375 262.59375 L 233.9375 263.390625 L 233.9375 262.59375 L 191.273438 262.59375 C 191.269531 262.59375 191.269531 262.59375 191.269531 262.59375 C 188.921875 262.59375 186.734375 263.335938 184.953125 264.59375 L 168.164062 264.59375 L 168.164062 232.980469 C 169.011719 232.015625 169.695312 230.898438 170.164062 229.671875 L 170.164062 262.59375 L 255.035156 262.59375 L 255.035156 255.742188 L 257.035156 255.742188 L 257.035156 264.59375 M 170.886719 186.132812 L 170.886719 183.097656 C 170.886719 182.488281 170.835938 181.890625 170.742188 181.308594 C 172.988281 177.179688 176.617188 173.480469 181.265625 170.449219 C 180.367188 171.773438 179.613281 173.152344 179.019531 174.570312 C 176.695312 176.5 174.773438 178.617188 173.335938 180.851562 C 172.242188 182.554688 171.417969 184.316406 170.886719 186.132812" fill="#160b0a"/></g><g id="change4_3"><path d="M 240.476562 257.710938 L 184.734375 257.710938 C 184.207031 257.710938 183.691406 257.496094 183.320312 257.121094 C 182.953125 256.757812 182.742188 256.257812 182.734375 255.742188 L 242.476562 255.742188 C 242.46875 256.257812 242.257812 256.757812 241.890625 257.121094 C 241.519531 257.496094 241.003906 257.710938 240.476562 257.710938" fill="#160b0a"/></g><g id="change4_4"><path d="M 168.164062 232.980469 L 168.164062 229.285156 C 168.628906 228.203125 168.886719 227.011719 168.886719 225.757812 L 168.886719 185.855469 C 169.320312 184.292969 169.945312 182.773438 170.742188 181.308594 C 170.835938 181.890625 170.886719 182.488281 170.886719 183.097656 L 170.886719 225.757812 C 170.886719 227.136719 170.628906 228.457031 170.164062 229.671875 C 169.695312 230.898438 169.011719 232.015625 168.164062 232.980469" fill="#160b0a"/></g><g id="change4_5"><path d="M 240.25 264.59375 L 234.660156 264.59375 C 234.574219 264.109375 234.308594 263.6875 233.9375 263.390625 L 233.9375 262.59375 C 236.289062 262.59375 238.464844 263.332031 240.25 264.59375 M 230.730469 264.59375 L 226.523438 264.59375 C 226.355469 263.664062 225.539062 262.957031 224.558594 262.957031 C 223.578125 262.957031 222.761719 263.664062 222.59375 264.59375 L 218.402344 264.59375 C 218.230469 263.664062 217.414062 262.957031 216.4375 262.957031 C 215.457031 262.957031 214.640625 263.664062 214.46875 264.59375 L 210.285156 264.59375 C 210.113281 263.664062 209.296875 262.957031 208.316406 262.957031 C 207.335938 262.957031 206.523438 263.664062 206.351562 264.59375 L 202.148438 264.59375 C 201.976562 263.664062 201.160156 262.957031 200.179688 262.957031 C 199.199219 262.957031 198.386719 263.664062 198.214844 264.59375 L 194.023438 264.59375 C 193.851562 263.664062 193.035156 262.957031 192.058594 262.957031 C 191.078125 262.957031 190.261719 263.664062 190.089844 264.59375 L 184.953125 264.59375 C 186.734375 263.335938 188.921875 262.59375 191.269531 262.59375 C 191.269531 262.59375 191.269531 262.59375 191.273438 262.59375 L 233.9375 262.59375 L 233.9375 263.390625 C 233.597656 263.121094 233.164062 262.957031 232.695312 262.957031 C 231.714844 262.957031 230.898438 263.664062 230.730469 264.59375" fill="#160b0a"/></g><g id="change4_6"><path d="M 194.023438 264.59375 L 190.089844 264.59375 C 190.261719 263.664062 191.078125 262.957031 192.058594 262.957031 C 193.035156 262.957031 193.851562 263.664062 194.023438 264.59375" fill="#160b0a"/></g><g id="change4_7"><path d="M 202.148438 264.59375 L 198.214844 264.59375 C 198.386719 263.664062 199.199219 262.957031 200.179688 262.957031 C 201.160156 262.957031 201.976562 263.664062 202.148438 264.59375" fill="#160b0a"/></g><g id="change4_8"><path d="M 210.285156 264.59375 L 206.351562 264.59375 C 206.523438 263.664062 207.335938 262.957031 208.316406 262.957031 C 209.296875 262.957031 210.113281 263.664062 210.285156 264.59375" fill="#160b0a"/></g><g id="change4_9"><path d="M 218.402344 264.59375 L 214.46875 264.59375 C 214.640625 263.664062 215.457031 262.957031 216.4375 262.957031 C 217.414062 262.957031 218.230469 263.664062 218.402344 264.59375" fill="#160b0a"/></g><g id="change4_10"><path d="M 226.523438 264.59375 L 222.59375 264.59375 C 222.761719 263.664062 223.578125 262.957031 224.558594 262.957031 C 225.539062 262.957031 226.355469 263.664062 226.523438 264.59375" fill="#160b0a"/></g><g id="change4_11"><path d="M 234.660156 264.59375 L 230.730469 264.59375 C 230.898438 263.664062 231.714844 262.957031 232.695312 262.957031 C 233.164062 262.957031 233.597656 263.121094 233.9375 263.390625 C 234.308594 263.6875 234.574219 264.109375 234.660156 264.59375" fill="#160b0a"/></g><g id="change9_1"><path d="M 159.917969 232.707031 C 157.992188 232.707031 156.265625 231.933594 155.003906 230.671875 C 154.085938 229.753906 153.429688 228.597656 153.132812 227.296875 C 157.039062 226.328125 159.925781 222.816406 159.925781 218.621094 L 159.925781 176.148438 C 163.785156 176.15625 166.882812 179.25 166.886719 183.097656 L 166.886719 225.757812 C 166.882812 227.683594 166.109375 229.40625 164.847656 230.671875 C 163.582031 231.929688 161.855469 232.707031 159.917969 232.707031" fill="#5daaa4"/></g><g id="change4_12"><path d="M 159.917969 234.707031 C 155.59375 234.707031 151.980469 231.640625 151.144531 227.558594 C 151.828125 227.546875 152.496094 227.453125 153.132812 227.296875 C 153.429688 228.597656 154.085938 229.753906 155.003906 230.671875 C 156.265625 231.933594 157.992188 232.707031 159.917969 232.707031 C 161.855469 232.707031 163.582031 231.929688 164.847656 230.671875 C 166.109375 229.40625 166.882812 227.683594 166.886719 225.757812 L 166.886719 183.097656 C 166.882812 179.25 163.785156 176.15625 159.925781 176.148438 L 159.925781 175.957031 C 159.925781 175.339844 159.863281 174.738281 159.742188 174.15625 L 159.917969 174.148438 C 164.878906 174.148438 168.886719 178.140625 168.886719 183.097656 L 168.886719 185.855469 C 168.410156 187.5625 168.164062 189.316406 168.164062 191.113281 L 168.164062 229.285156 C 166.792969 232.472656 163.621094 234.707031 159.917969 234.707031" fill="#160b0a"/></g><g id="change10_1"><path d="M 168.164062 229.285156 L 168.164062 191.113281 C 168.164062 189.316406 168.410156 187.5625 168.886719 185.855469 L 168.886719 225.757812 C 168.886719 227.011719 168.628906 228.203125 168.164062 229.285156" fill="#140a09"/></g><g id="change9_2"><path d="M 265.285156 232.707031 C 263.359375 232.707031 261.632812 231.933594 260.367188 230.671875 C 259.105469 229.40625 258.332031 227.683594 258.332031 225.757812 L 258.332031 183.097656 C 258.332031 179.246094 261.441406 176.148438 265.285156 176.148438 C 265.570312 176.148438 265.851562 176.164062 266.125 176.199219 L 266.125 218.621094 C 266.125 222.523438 268.625 225.835938 272.117188 227.058594 C 271.851562 228.457031 271.171875 229.699219 270.203125 230.671875 C 268.9375 231.933594 267.214844 232.707031 265.285156 232.707031" fill="#5daaa4"/></g><g id="change4_13"><path d="M 266.132812 234.707031 C 261.171875 234.707031 257.164062 230.703125 257.164062 225.757812 L 257.164062 183.097656 C 257.164062 178.140625 261.171875 174.148438 266.132812 174.148438 L 266.308594 174.15625 C 266.1875 174.738281 266.125 175.339844 266.125 175.957031 L 266.125 176.199219 C 265.851562 176.164062 265.570312 176.148438 265.285156 176.148438 C 261.441406 176.148438 258.332031 179.246094 258.332031 183.097656 L 258.332031 225.757812 C 258.332031 227.683594 259.105469 229.40625 260.367188 230.671875 C 261.632812 231.933594 263.359375 232.707031 265.285156 232.707031 C 267.214844 232.707031 268.9375 231.933594 270.203125 230.671875 C 271.171875 229.699219 271.851562 228.457031 272.117188 227.058594 C 272.992188 227.363281 273.929688 227.539062 274.90625 227.558594 C 274.070312 231.640625 270.457031 234.707031 266.132812 234.707031" fill="#160b0a"/></g><g id="change7_3"><path d="M 237.277344 338.621094 C 236.367188 338.621094 235.546875 338 235.332031 337.078125 L 224.734375 291.847656 C 224.484375 290.769531 225.152344 289.695312 226.226562 289.441406 C 226.378906 289.40625 226.53125 289.390625 226.683594 289.390625 C 227.59375 289.390625 228.414062 290.011719 228.628906 290.933594 L 239.226562 336.167969 C 239.476562 337.242188 238.808594 338.316406 237.734375 338.570312 C 237.582031 338.605469 237.429688 338.621094 237.277344 338.621094" fill="#f5acae"/></g><g id="change7_4"><path d="M 220.277344 346.15625 C 219.238281 346.15625 218.363281 345.359375 218.285156 344.308594 L 214.59375 295.308594 C 214.507812 294.207031 215.335938 293.246094 216.4375 293.164062 C 216.488281 293.160156 216.535156 293.15625 216.589844 293.15625 C 217.625 293.15625 218.5 293.957031 218.578125 295.007812 L 222.273438 344.007812 C 222.355469 345.109375 221.53125 346.070312 220.429688 346.152344 C 220.378906 346.15625 220.324219 346.15625 220.277344 346.15625" fill="#f5acae"/></g></g></svg>