<?xml version="1.0" encoding="UTF-8"?><svg xmlns="http://www.w3.org/2000/svg" xmlns:xlink="http://www.w3.org/1999/xlink" height="201.6" preserveAspectRatio="xMidYMid meet" version="1.1" viewBox="96.7 111.8 231.8 201.6" width="231.8" zoomAndPan="magnify">
 <g id="surface1">
  <g id="change1_1"><path d="m317.76 133.5h-147.22v-10.97c0-4.55-3.68-8.23-8.23-8.23h-39.32c-4.55 0-8.23 3.68-8.23 8.23v10.97h-7.31c-4.55 0-8.235 3.69-8.235 8.23v160.94c0 4.54 3.685 8.23 8.235 8.23h210.31c4.54 0 8.22-3.69 8.22-8.23v-160.94c0-4.54-3.68-8.23-8.22-8.23" fill="#6db5e7"/></g>
  <path d="m3177.6 2917h-1472.2v109.7c0 45.5-36.8 82.3-82.3 82.3h-393.2c-45.5 0-82.3-36.8-82.3-82.3v-109.7h-73.1c-45.5 0-82.35-36.9-82.35-82.3v-1609.4c0-45.4 36.85-82.3 82.35-82.3h2103.1c45.4 0 82.2 36.9 82.2 82.3v1609.4c0 45.4-36.8 82.3-82.2 82.3z" fill="none" stroke="#224c8d" stroke-miterlimit="10" stroke-width="50" transform="matrix(.1 0 0 -.1 0 425.2)"/>
  <g id="change2_1"><path d="m99.215 157.89v144.78c0 4.54 3.685 8.23 8.235 8.23h210.31c4.54 0 8.22-3.69 8.22-8.23v-144.78h-226.76" fill="#fff"/></g>
  <path d="m992.15 2673.1v-1447.8c0-45.4 36.85-82.3 82.35-82.3h2103.1c45.4 0 82.2 36.9 82.2 82.3v1447.8z" fill="none" stroke="#224c8d" stroke-miterlimit="10" stroke-width="50" transform="matrix(.1 0 0 -.1 0 425.2)"/>
  <g id="change1_2"><path d="m303.12 146.08c0 2.53 2.05 4.57 4.58 4.57 2.52 0 4.57-2.04 4.57-4.57s-2.05-4.57-4.57-4.57c-2.53 0-4.58 2.04-4.58 4.57" fill="#6db5e7"/></g>
  <path d="m3031.2 2791.2c0-25.3 20.5-45.7 45.8-45.7 25.2 0 45.7 20.4 45.7 45.7s-20.5 45.7-45.7 45.7c-25.3 0-45.8-20.4-45.8-45.7z" fill="none" stroke="#224c8d" stroke-miterlimit="10" stroke-width="50" transform="matrix(.1 0 0 -.1 0 425.2)"/>
  <g id="change1_3"><path d="m282.78 146.08c0 2.53 2.05 4.57 4.57 4.57 2.53 0 4.58-2.04 4.58-4.57s-2.05-4.57-4.58-4.57c-2.52 0-4.57 2.04-4.57 4.57" fill="#6db5e7"/></g>
  <path d="m2827.8 2791.2c0-25.3 20.5-45.7 45.7-45.7 25.3 0 45.8 20.4 45.8 45.7s-20.5 45.7-45.8 45.7c-25.2 0-45.7-20.4-45.7-45.7z" fill="none" stroke="#224c8d" stroke-miterlimit="10" stroke-width="50" transform="matrix(.1 0 0 -.1 0 425.2)"/>
  <g id="change1_4"><path d="m262.43 146.08c0 2.53 2.05 4.57 4.58 4.57 2.52 0 4.57-2.04 4.57-4.57s-2.05-4.57-4.57-4.57c-2.53 0-4.58 2.04-4.58 4.57" fill="#6db5e7"/></g>
  <path d="m2624.3 2791.2c0-25.3 20.5-45.7 45.8-45.7 25.2 0 45.7 20.4 45.7 45.7s-20.5 45.7-45.7 45.7c-25.3 0-45.8-20.4-45.8-45.7z" fill="none" stroke="#224c8d" stroke-miterlimit="10" stroke-width="50" transform="matrix(.1 0 0 -.1 0 425.2)"/>
  <path d="m3077 2673.1v-1530.1" fill="none" stroke="#224c8d" stroke-miterlimit="10" stroke-width="50" transform="matrix(.1 0 0 -.1 0 425.2)"/>
  <g id="change1_5"><path d="m325.98 239.57h-18.28v-45.26h18.28v45.26" fill="#6db5e7"/></g>
  <path d="m3259.8 1856.3h-182.8v452.6h182.8z" fill="none" stroke="#224c8d" stroke-miterlimit="10" stroke-width="50" transform="matrix(.1 0 0 -.1 0 425.2)"/>
  <g id="change1_6"><path d="m176.18 274.56c-1.07 0-2.12-0.36-2.96-1.02l-44.98-35.39c-1.16-0.91-1.83-2.28-1.83-3.76 0-1.47 0.67-2.84 1.82-3.76l44.98-35.38c0.84-0.66 1.9-1.03 2.97-1.03 1.47 0 2.84 0.67 3.76 1.83 0.79 1 1.14 2.25 0.99 3.52-0.15 1.28-0.79 2.41-1.79 3.2l-40.19 31.62 40.19 31.62c1 0.79 1.64 1.93 1.79 3.2s-0.2 2.52-0.99 3.52c-0.91 1.16-2.28 1.83-3.76 1.83" fill="#6db5e7"/></g>
  <g id="change3_1"><path d="m176.18 191.72c-1.63 0-3.23 0.55-4.51 1.56l-44.97 35.38c-1.78 1.41-2.79 3.49-2.79 5.73 0 2.25 1.02 4.34 2.79 5.73l44.97 35.38c1.28 1.01 2.88 1.56 4.51 1.56 2.25 0 4.34-1.01 5.73-2.79 1.2-1.52 1.73-3.43 1.5-5.36s-1.2-3.66-2.73-4.86l-37.69-29.66 37.69-29.66c1.53-1.19 2.5-2.92 2.73-4.86 0.23-1.93-0.3-3.84-1.51-5.37-1.39-1.77-3.47-2.78-5.72-2.78zm0 5c0.67 0 1.34 0.3 1.8 0.87 0.78 1 0.61 2.43-0.39 3.22l-42.69 33.58 42.69 33.59c1 0.78 1.17 2.22 0.39 3.21-0.46 0.58-1.12 0.87-1.8 0.87-0.5 0-1-0.16-1.42-0.49l-44.97-35.38c-0.56-0.43-0.88-1.1-0.88-1.8s0.32-1.36 0.88-1.8l44.97-35.38c0.42-0.33 0.92-0.49 1.42-0.49" fill="#224c8d"/></g>
  <g id="change1_7"><path d="m235.52 274.56c-1.48 0-2.85-0.67-3.77-1.83-1.63-2.07-1.27-5.09 0.81-6.72l40.19-31.62-40.19-31.62c-2.08-1.63-2.44-4.65-0.81-6.72 0.92-1.16 2.29-1.83 3.77-1.83 1.07 0 2.12 0.37 2.96 1.03l44.97 35.38c1.17 0.92 1.83 2.29 1.83 3.76 0 1.48-0.67 2.85-1.83 3.76l-44.97 35.39c-0.84 0.66-1.89 1.02-2.96 1.02" fill="#6db5e7"/></g>
  <g id="change3_2"><path d="m235.52 191.72c-2.25 0-4.34 1.01-5.73 2.78-2.49 3.16-1.94 7.75 1.22 10.23l37.7 29.66-37.7 29.66c-3.15 2.48-3.7 7.07-1.22 10.23 1.39 1.77 3.48 2.78 5.73 2.78 1.62 0 3.22-0.55 4.5-1.55l44.98-35.39c1.77-1.39 2.78-3.48 2.78-5.73 0-2.24-1.01-4.32-2.76-5.71l-45-35.4c-1.27-1-2.87-1.56-4.5-1.56zm0 5c0.5 0 0.99 0.16 1.41 0.49l44.98 35.38c0.55 0.44 0.87 1.1 0.87 1.8s-0.32 1.37-0.87 1.8l-44.98 35.38c-0.42 0.33-0.91 0.49-1.41 0.49-0.68 0-1.35-0.29-1.8-0.87-0.78-0.99-0.61-2.43 0.38-3.21l42.69-33.59-42.69-33.58c-0.99-0.79-1.16-2.22-0.38-3.22 0.45-0.57 1.12-0.87 1.8-0.87" fill="#224c8d"/></g>
  <g id="change1_8"><path d="m183.5 295.91c-0.59 0-1.17-0.1-1.72-0.32-1.2-0.46-2.15-1.36-2.66-2.53-0.52-1.17-0.55-2.47-0.09-3.66l43.92-113.47c0.71-1.83 2.51-3.06 4.47-3.06 0.59 0 1.17 0.11 1.73 0.32 1.19 0.46 2.13 1.36 2.65 2.54 0.52 1.16 0.55 2.47 0.09 3.66l-43.93 113.47c-0.71 1.83-2.5 3.05-4.46 3.05" fill="#6db5e7"/></g>
  <g id="change3_3"><path d="m227.42 170.37c-2.99 0-5.72 1.87-6.8 4.66l-43.92 113.46c-0.7 1.82-0.65 3.8 0.13 5.58 0.79 1.79 2.22 3.15 4.04 3.86 0.85 0.32 1.73 0.48 2.63 0.48 2.98 0 5.71-1.87 6.79-4.65l43.92-113.47c0.71-1.82 0.66-3.8-0.12-5.58-0.79-1.78-2.23-3.15-4.04-3.85-0.84-0.32-1.73-0.49-2.63-0.49zm0 5c0.28 0 0.55 0.05 0.83 0.15 1.17 0.46 1.76 1.79 1.3 2.96l-43.92 113.47c-0.35 0.91-1.22 1.46-2.13 1.46-0.28 0-0.56-0.05-0.83-0.15-1.18-0.46-1.76-1.78-1.31-2.96l43.93-113.46c0.35-0.91 1.21-1.47 2.13-1.47" fill="#224c8d"/></g>
 </g>
</svg>